<svg width="1306" height="1307" xmlns="http://www.w3.org/2000/svg" xmlns:xlink="http://www.w3.org/1999/xlink" xml:space="preserve" overflow="hidden"><g transform="translate(-1247 -460)"><rect x="1250.5" y="463.5" width="1299" height="1300" stroke="#D9F2D0" stroke-width="6.875" stroke-miterlimit="8" fill="#D9F2D0"/><g><g><g><path d="M1817.08 1155.59C1806.14 1194.92 1817.46 1224.1 1834.48 1250.92L1693.34 1250.92 1711.89 1355.07C1713.93 1366.54 1723.85 1374.93 1735.5 1375.04L2021.2 1375.04C2032.84 1374.93 2042.76 1366.54 2044.8 1355.07L2063.35 1250.92 1923.91 1250.92C1914.58 1241.46 1904.66 1232.62 1894.19 1224.44 1864.55 1200.32 1852 1187.48 1856.95 1166.74 1861.99 1149.54 1879.04 1140.88 1904.47 1129.69 1906.56 1128.76 1908.66 1127.83 1910.76 1126.89 1927.03 1124.27 1944.81 1122.57 1961.08 1121.45 1956.93 1125.27 1954.46 1130.58 1954.21 1136.21 1954.21 1153.86 1980.79 1168.17 2013.59 1168.17 2039.69 1168.17 2061.8 1159.09 2069.77 1146.5 2083.07 1154.25 2098.3 1158.07 2113.68 1157.52 2143.67 1157.52 2167.98 1145.6 2167.98 1130.89 2167.98 1116.18 2143.67 1104.26 2113.68 1104.26 2109.64 1104.27 2105.59 1104.5 2101.57 1104.95 2102.28 1103.02 2102.64 1100.99 2102.66 1098.94 2102.66 1081.29 2076.07 1066.98 2043.28 1066.98 2014.51 1066.98 1990.53 1077.99 1985.07 1092.61 1976.3 1092.96 1966.21 1093.49 1955.54 1094.26 1957.13 1091.7 1958.49 1089.01 1959.61 1086.21 1968.38 1063.16 1964.39 1037.2 1949.09 1017.86 1956.54 1010.01 1960.82 999.688 1961.1 988.875 1961.01 981.532 1958.91 974.353 1955.04 968.117 1955.91 968.138 1956.77 968.188 1957.66 968.188 1979.95 968.188 1999.34 961.593 2009.25 951.889 2018.89 962.689 2032.82 968.658 2047.29 968.188 2072.05 968.188 2092.12 952.751 2092.12 933.708 2092.12 914.666 2072.05 899.229 2047.29 899.229 2045.85 899.229 2044.43 899.293 2043.03 899.395 2043.54 897.076 2043.82 894.709 2043.85 892.333 2043.85 865.674 2012.97 844.063 1974.89 844.063 1949.12 844.063 1926.69 853.975 1914.85 868.634 1901.55 861.383 1886.6 857.671 1871.45 857.854 1839.6 857.854 1812.87 872.992 1804.94 893.535 1799.57 892.744 1794.14 892.342 1788.71 892.333 1750.62 892.333 1719.75 910.858 1719.75 933.708 1720.34 943.914 1725.67 953.255 1734.16 958.951 1718.12 964.322 1706.96 978.893 1705.95 995.771 1705.95 996.3 1706.02 996.815 1706.05 997.338 1678.02 1001.72 1657.69 1014.8 1657.69 1030.25 1657.69 1049.29 1688.56 1064.73 1726.64 1064.73 1759.65 1064.73 1787.21 1053.13 1793.98 1037.64 1813.98 1046.65 1835.72 1051.19 1857.66 1050.94 1877.05 1051.1 1896.29 1047.64 1914.41 1040.73 1921.89 1048.83 1924.48 1060.31 1921.2 1070.83 1918.15 1078.45 1902.72 1085.25 1887.79 1091.82 1861.04 1103.6 1827.74 1118.26 1817.08 1155.59Z" stroke="#D9F2D0" stroke-width="6.89583" fill="#3B7D23"/></g></g></g></g></svg>