<svg width="466" height="467" xmlns="http://www.w3.org/2000/svg" xmlns:xlink="http://www.w3.org/1999/xlink" xml:space="preserve" overflow="hidden"><g transform="translate(-133 -575)"><path d="M87.8604 272.532C82.1024 261.495 77.6531 249.822 74.6037 237.752 58.9272 239.664 43.4725 243.088 28.4551 247.975 28.4551 247.975 60.4926 323.671 123.373 351.345 146.08 360.826 170.612 365.137 195.191 363.965 169.833 353.223 115.689 325.2 87.8604 272.532Z" fill="#FFFFFF" transform="matrix(1 0 0 1.00215 133 575)"/><path d="M390.401 237.709C387.355 249.795 382.902 261.483 377.135 272.532 349.33 325.19 295.196 353.213 269.819 363.956 294.504 365.167 319.149 360.855 341.957 351.335 404.837 323.671 436.875 247.975 436.875 247.975 421.754 243.052 406.189 239.613 390.401 237.709Z" fill="#FFFFFF" transform="matrix(1 0 0 1.00215 133 575)"/><path d="M156.348 230.452C156.644 208.807 160.97 187.407 169.105 167.347 147.027 148.568 121.857 133.765 94.7145 123.597 94.7145 123.597 72.8125 202.817 104.889 263.552 127.218 305.832 169.449 330.807 194.565 342.583 177.09 316.759 156.348 276.425 156.348 230.452Z" fill="#FFFFFF" transform="matrix(1 0 0 1.00215 133 575)"/><path d="M370.295 123.582C342.809 133.881 317.351 148.937 295.085 168.061 303.046 187.914 307.275 209.064 307.56 230.452 307.56 276.882 286.406 317.555 268.824 343.345 293.687 331.899 337.311 306.745 360.126 263.552 392.217 202.817 370.295 123.582 370.295 123.582Z" fill="#FFFFFF" transform="matrix(1 0 0 1.00215 133 575)"/><path d="M288.337 230.456C288.337 301.254 231.971 358.97 231.971 358.97 231.971 358.97 175.585 301.254 175.585 230.456 175.585 161.77 231.951 101.938 231.951 101.938 231.951 101.938 288.337 161.77 288.337 230.456Z" fill="#FFFFFF" transform="matrix(1 0 0 1.00215 133 575)"/></g></svg>